<svg width="44" height="44" viewBox="0 0 448 448" fill="none" xmlns="http://www.w3.org/2000/svg">
  <defs>
    <radialGradient id="ig-gradient" cx="0.5" cy="0.5" r="0.8">
      <stop offset="0%" stop-color="#f9ce34"/>
      <stop offset="45%" stop-color="#ee2a7b"/>
      <stop offset="100%" stop-color="#6228d7"/>
    </radialGradient>
  </defs>
  <rect width="448" height="448" rx="100" fill="url(#ig-gradient)"/>
  <path d="M224 138c-47.5 0-86 38.5-86 86s38.5 86 86 86 86-38.5 86-86-38.5-86-86-86zm0 142c-30.9 0-56-25.1-56-56s25.1-56 56-56 56 25.1 56 56-25.1 56-56 56zm87.5-144c0 11-9 20-20 20s-20-9-20-20 9-20 20-20 20 9 20 20zm49.5 20c-1.1-23.6-6.4-44.5-23.4-61.6S332.6 50.6 309 49.5C285.4 48.4 162.6 48.4 139 49.5c-23.6 1.1-44.5 6.4-61.6 23.4S50.6 115.4 49.5 139C48.4 162.6 48.4 285.4 49.5 309c1.1 23.6 6.4 44.5 23.4 61.6s38 22.3 61.6 23.4c23.6 1.1 146.4 1.1 170 0 23.6-1.1 44.5-6.4 61.6-23.4s22.3-38 23.4-61.6c1.1-23.6 1.1-146.4 0-170zm-35.7 207.7c-7.8 7.8-18.1 12.2-29.7 13.6-20.6 2.4-82.4 2.4-103 0-11.6-1.4-21.9-5.8-29.7-13.6-7.8-7.8-12.2-18.1-13.6-29.7-2.4-20.6-2.4-82.4 0-103 1.4-11.6 5.8-21.9 13.6-29.7 7.8-7.8 18.1-12.2 29.7-13.6 20.6-2.4 82.4-2.4 103 0 11.6 1.4 21.9 5.8 29.7 13.6 7.8 7.8 12.2 18.1 13.6 29.7 2.4 20.6 2.4 82.4 0 103-1.4 11.6-5.8 21.9-13.6 29.7z" fill="#fff"/>
</svg>
