<svg width="44" height="44" viewBox="0 0 48 48" fill="none" xmlns="http://www.w3.org/2000/svg">
  <rect width="48" height="48" rx="12" fill="#25D366"/>
  <path d="M24 12c-6.627 0-12 5.373-12 12 0 2.13.56 4.21 1.62 6.03L12 36l6.13-1.62A11.96 11.96 0 0 0 24 36c6.627 0 12-5.373 12-12S30.627 12 24 12zm0 21.5c-1.62 0-3.2-.41-4.59-1.17l-.41-.23-3.64.96.97-3.59-.24-.37A9.5 9.5 0 1 1 24 33.5zm5.45-7.16c-.3-.15-1.79-.88-2.07-.98-.28-.1-.48-.15-.68.15-.2.3-.78.98-.96 1.19-.18.2-.35.23-.65.08-.3-.15-1.27-.47-2.42-1.49-.89-.8-1.49-1.78-1.67-2.08-.18-.3-.02-.44.13-.59.13-.13.3-.35.44-.53.15-.18.19-.31.29-.51.1-.2.05-.39-.03-.54-.08-.15-.68-1.66-.93-2.28-.24-.62-.48-.54-.67-.55-.18-.01-.39-.02-.6-.02-.21 0-.54.07-.83.36-.29.29-1.1 1.07-1.1 2.6 0 1.53 1.13 3.01 1.28 3.21.15.2 1.98 3.02 4.8 4.12.67.23 1.2.36 1.6.46.67.16 1.28.13 1.75.08.54-.07 1.66-.67 1.89-1.32.24-.65.24-1.19.16-1.32-.08-.13-.28-.2-.59-.35z" fill="#fff"/>
</svg>
